<svg width="203" height="226" viewBox="0 0 203 226" fill="none" xmlns="http://www.w3.org/2000/svg">
<path d="M127.982 6.65054C130.945 17.0206 131.047 29.6178 131.047 40.3611" stroke="black" stroke-width="3" stroke-linecap="round"/>
<path d="M45.4811 5.53365C46.3822 19.9523 48.5861 34.2821 49.4537 48.7217C51.4357 81.7074 50.0554 114.62 47.5241 147.526C45.8693 169.04 44.1361 190.972 46.5026 212.507C46.7516 214.773 47.5262 221.073 48.5457 219.034" stroke="black" stroke-width="3" stroke-linecap="round"/>
<path d="M38.3304 6.55518C65.7755 6.55518 93.2349 6.83231 120.677 6.44168C142.114 6.13652 163.452 4.52863 184.863 3.71759C189.736 3.53302 196.289 4.70121 200.754 2.46906" stroke="black" stroke-width="3" stroke-linecap="round"/>
<path d="M48.5457 38.2226C49.0184 36.0954 52.333 33.7971 53.6533 32.0367C56.7768 27.872 59.2526 23.1961 62.0526 18.8136C64.8672 14.4081 68.3417 8.91555 73.0624 6.55518" stroke="black" stroke-width="3" stroke-linecap="round"/>
<path d="M2.20386 223.144C7.13027 223.144 11.9977 223.789 16.9217 223.896C35.0762 224.291 53.0769 222.769 71.1963 222.305C77.9172 222.132 98.0293 220.758 91.3062 220.758" stroke="black" stroke-width="3" stroke-linecap="round"/>
</svg>
