<svg width="58" height="51" viewBox="0 0 58 51" fill="none" xmlns="http://www.w3.org/2000/svg">
<path d="M31.0473 6.2197C27.2827 5.1918 20.9059 3.69814 17.299 5.73762C10.8313 9.39471 5.58383 16.269 3.26818 23.3819C-2.74144 41.8417 25.3964 50.8089 38.4865 49.2217C46.2353 48.2822 54.6018 44.947 55.4365 36.0126C55.9317 30.7117 56.0741 21.5305 53.5531 16.6327C49.2571 8.28652 35.9706 3.53968 27.5632 2.2666C23.3398 1.62709 20.1677 2.31688 16.6398 4.4842" stroke="black" stroke-width="3" stroke-linecap="round"/>
<path d="M14.6912 14.5965C14.8379 15.7979 17.2096 17.9243 17.984 18.7173C19.2613 20.025 21.2565 20.8266 22.2176 22.3028" stroke="black" stroke-width="3" stroke-linecap="round"/>
<path d="M13.28 22.3028C14.5707 22.1376 16.058 19.2263 16.7819 18.3427C18.2318 16.5726 21.0355 13.893 21.7472 11.7067" stroke="black" stroke-width="3" stroke-linecap="round"/>
<path d="M35.3889 13.6333C37.579 15.0994 41.9745 18.3879 41.9745 21.3396" stroke="black" stroke-width="3" stroke-linecap="round"/>
<path d="M34.9185 20.3763C38.601 19.9573 40.7365 15.0338 44.3266 14.1149" stroke="black" stroke-width="3" stroke-linecap="round"/>
<path d="M19.8656 35.3072C20.0098 34.1267 23.1145 32.7778 23.9163 32.4174C28.2216 30.482 32.5215 29.0458 37.2444 29.0458C40.8741 29.0458 44.3962 29.3223 47.6193 30.9724" stroke="black" stroke-width="3" stroke-linecap="round"/>
</svg>
