<svg xmlns="http://www.w3.org/2000/svg" viewBox="0 0 158.09 202.95"><defs><style>.cls-1{fill:none;stroke:#000;stroke-miterlimit:10;stroke-width:5px;}</style></defs><title>tamagotchiIcon</title><g id="Слой_2" data-name="Слой 2"><g id="Layer_1" data-name="Layer 1"><ellipse class="cls-1" cx="79.05" cy="135.77" rx="76.55" ry="64.67"/><circle class="cls-1" cx="78.67" cy="25.99" r="23.49"/><circle class="cls-1" cx="78.67" cy="58.88" r="2.14"/><circle class="cls-1" cx="78.67" cy="52.88" r="2.14"/><path class="cls-1" d="M57.32,74.26C57.32,67.49,67,62,78.86,62s21.53,5.48,21.53,12.25"/><rect class="cls-1" x="35.09" y="103.69" width="87.54" height="53.81" rx="7.77"/><ellipse class="cls-1" cx="48.35" cy="171.27" rx="3.41" ry="2.46"/><ellipse class="cls-1" cx="68.35" cy="171.27" rx="3.41" ry="2.46"/><ellipse class="cls-1" cx="88.35" cy="171.27" rx="3.41" ry="2.46"/><ellipse class="cls-1" cx="108.35" cy="171.27" rx="3.41" ry="2.46"/><ellipse class="cls-1" cx="70.64" cy="82.47" rx="1.92" ry="1.39"/><ellipse class="cls-1" cx="61.83" cy="90.55" rx="1.92" ry="1.39"/><ellipse class="cls-1" cx="79.45" cy="90.55" rx="1.92" ry="1.39"/><ellipse class="cls-1" cx="97.07" cy="90.55" rx="1.92" ry="1.39"/><ellipse class="cls-1" cx="88.26" cy="82.47" rx="1.92" ry="1.39"/><ellipse class="cls-1" cx="80.96" cy="134.38" rx="18.82" ry="10.61"/><ellipse class="cls-1" cx="69.97" cy="115.88" rx="2.78" ry="1.83"/><ellipse class="cls-1" cx="84.97" cy="115.88" rx="2.78" ry="1.83"/><ellipse class="cls-1" cx="72.82" cy="132.87" rx="1.07" ry="0.63"/><ellipse class="cls-1" cx="82.82" cy="132.87" rx="1.07" ry="0.63"/><ellipse class="cls-1" cx="72.65" cy="148.09" rx="4.7" ry="2.21"/><ellipse class="cls-1" cx="89.65" cy="148.09" rx="4.7" ry="2.21"/></g></g></svg>