<svg width="11" height="11" viewBox="0 0 11 11" fill="none" xmlns="http://www.w3.org/2000/svg">
<path fill-rule="evenodd" clip-rule="evenodd" d="M8.04167 7.16667H7.58083L7.4175 7.00917C7.98917 6.34417 8.33333 5.48083 8.33333 4.54167C8.33333 2.4475 6.63583 0.75 4.54167 0.75C2.4475 0.75 0.75 2.4475 0.75 4.54167C0.75 6.63583 2.4475 8.33333 4.54167 8.33333C5.48083 8.33333 6.34417 7.98917 7.00917 7.4175L7.16667 7.58083V8.04167L10.0833 10.9525L10.9525 10.0833L8.04167 7.16667ZM4.54167 7.16667C3.08917 7.16667 1.91667 5.99417 1.91667 4.54167C1.91667 3.08917 3.08917 1.91667 4.54167 1.91667C5.99417 1.91667 7.16667 3.08917 7.16667 4.54167C7.16667 5.99417 5.99417 7.16667 4.54167 7.16667Z" fill="#9FA2AB"/>
</svg>
