<?xml version="1.0" standalone="no"?>
<!DOCTYPE svg PUBLIC "-//W3C//DTD SVG 20010904//EN"
 "http://www.w3.org/TR/2001/REC-SVG-20010904/DTD/svg10.dtd">
<svg version="1.0" xmlns="http://www.w3.org/2000/svg"
 width="20" height="20" viewBox="0 0 640.000000 640.000000"
 preserveAspectRatio="xMidYMid meet">

<g transform="translate(0.000000,640.000000) scale(0.100000,-0.100000)"
fill="white" stroke="none">
<path d="M2940 5669 c-1064 -95 -1959 -857 -2225 -1894 -59 -230 -70 -328 -70
-630 0 -235 3 -287 23 -400 143 -825 646 -1502 1387 -1866 247 -122 503 -199
800 -241 118 -17 502 -16 625 1 571 79 1079 329 1475 726 325 326 557 736 665
1177 57 233 65 309 65 613 0 313 -13 414 -80 660 -324 1181 -1446 1962 -2665
1854z m-523 -1005 c19 -9 45 -33 59 -53 24 -35 24 -38 24 -264 0 -243 -3 -258
-52 -304 -12 -12 -44 -27 -69 -34 -43 -11 -50 -10 -95 12 -89 44 -89 45 -89
322 0 239 0 243 23 272 48 62 129 81 199 49z m1663 -6 c74 -51 75 -55 78 -301
3 -214 2 -224 -20 -267 -59 -115 -221 -113 -277 4 -19 38 -21 60 -21 244 0
211 6 249 48 296 44 49 138 60 192 24z m-1980 -406 c0 -158 34 -234 128 -289
40 -24 58 -28 122 -28 64 0 82 4 122 28 94 55 128 131 128 289 l0 98 580 0
580 0 0 -117 c0 -140 14 -178 83 -239 105 -93 257 -82 348 25 48 55 59 98 59
225 l0 107 163 -3 c145 -3 167 -5 209 -26 60 -30 119 -89 149 -150 l24 -47 0
-1180 0 -1180 -23 -43 c-35 -66 -88 -119 -150 -149 l-57 -28 -1400 0 -1400 0
-47 22 c-60 27 -127 95 -159 158 l-24 50 0 1175 0 1175 30 53 c36 66 111 135
168 155 30 11 87 16 205 16 l162 1 0 -98z"/>
<path d="M1810 2750 l0 -950 1355 0 1355 0 0 950 0 950 -1355 0 -1355 0 0
-950z m820 585 l0 -215 -330 0 -330 0 0 215 0 215 330 0 330 0 0 -215z m865 0
l0 -210 -327 -3 -328 -2 0 215 0 215 328 -2 327 -3 0 -210z m865 0 l0 -215
-330 0 -330 0 0 215 0 215 330 0 330 0 0 -215z m-1730 -590 l0 -215 -330 0
-330 0 0 215 0 215 330 0 330 0 0 -215z m865 0 l0 -210 -327 -3 -328 -2 0 215
0 215 328 -2 327 -3 0 -210z m865 0 l0 -215 -330 0 -330 0 0 215 0 215 330 0
330 0 0 -215z m-1730 -590 l0 -215 -330 0 -330 0 0 215 0 215 330 0 330 0 0
-215z m865 0 l0 -210 -327 -3 -328 -2 0 215 0 215 328 -2 327 -3 0 -210z m865
0 l0 -215 -330 0 -330 0 0 215 0 215 330 0 330 0 0 -215z"/>
</g>
</svg>
