<svg width="20" height="20" version="1.1" id="Слой_1" xmlns="http://www.w3.org/2000/svg" xmlns:xlink="http://www.w3.org/1999/xlink" x="0px" y="0px"
	 viewBox="0 0 30.81 28.62" style="enable-background:new 0 0 30.81 28.62;" xml:space="preserve">
<style type="text/css">
	.st0{fill:#FFFFFF;}
</style>
<g>
	<path class="st0" d="M3.33,2.65v15.23h24.15V2.65H3.33z M25.42,14.06c-0.94,0-1.7,0.76-1.7,1.7c0,0.03,0.01,0.06,0.01,0.09H7.12
		c0-0.03,0.01-0.06,0.01-0.09c0-0.94-0.76-1.7-1.7-1.7c-0.02,0-0.04,0.01-0.06,0.01V6.58c0.88-0.06,1.58-0.79,1.58-1.69
		c0-0.07-0.01-0.14-0.02-0.21h16.8c0.07,0.87,0.8,1.56,1.69,1.56c0.01,0,0.02,0,0.03,0v7.83C25.44,14.07,25.43,14.06,25.42,14.06z"
		/>
	<path class="st0" d="M8.59,9c-0.72,0-1.3,0.58-1.3,1.3s0.58,1.3,1.3,1.3c0.72,0,1.3-0.58,1.3-1.3S9.31,9,8.59,9z"/>
	<path class="st0" d="M15.41,7.29c-3.01,0-3.52,2.67-3.52,5.96h7.04C18.92,9.96,18.3,7.29,15.41,7.29z"/>
	<path class="st0" d="M22.13,9c-0.72,0-1.3,0.58-1.3,1.3s0.58,1.3,1.3,1.3c0.72,0,1.3-0.58,1.3-1.3S22.84,9,22.13,9z"/>
	<path class="st0" d="M24.88,20.67c-0.22-0.09-0.45-0.14-0.71-0.14c-0.97,0-1.76,0.76-1.76,1.69c-4.25-0.83-10.89-1.35-14.59-1.59
		c-0.11-0.59-0.63-1.04-1.27-1.07V18.9H4.51v3.56l0.96,0.05c7.14,0.39,17.87,1.43,19.38,2.49l1.37,0.96l0.85-6.33l-2.01-0.27
		L24.88,20.67z"/>
</g>
</svg>
