<svg width="20" height="20" viewBox="0 0 20 20" fill="none" xmlns="http://www.w3.org/2000/svg">
<path fill-rule="evenodd" clip-rule="evenodd" d="M4.16666 9.16667C4.39166 9.16667 4.59999 9.075 4.75833 8.91667C5.08333 8.58333 5.08333 8.06667 4.74999 7.74167C4.59166 7.59167 4.38333 7.5 4.16666 7.5C3.94166 7.5 3.73333 7.59167 3.57499 7.75C3.24999 8.08333 3.24999 8.6 3.58333 8.925C3.74166 9.075 3.94999 9.16667 4.16666 9.16667ZM15 7.5H9.16666V9.16667H16.6667C16.6667 8.25 15.9167 7.5 15 7.5Z" fill="#28A745" fill-opacity="0.3"/>
<path fill-rule="evenodd" clip-rule="evenodd" d="M4.16669 10.8333C4.81669 10.8333 5.45835 10.5833 5.95002 10.0833C6.91669 9.09168 6.90002 7.51668 5.91669 6.55001C5.42502 6.07501 4.79169 5.83334 4.16669 5.83334C3.51669 5.83334 2.87502 6.08334 2.38335 6.58334C1.41669 7.57501 1.43335 9.15001 2.41669 10.1167C2.90835 10.5917 3.54169 10.8333 4.16669 10.8333ZM3.57502 7.75001C3.73335 7.59168 3.94169 7.50001 4.16669 7.50001C4.38335 7.50001 4.59169 7.58334 4.75002 7.73334C5.08335 8.05834 5.08335 8.57501 4.76669 8.90834C4.60002 9.07501 4.39169 9.16668 4.16669 9.16668C3.95002 9.16668 3.74169 9.08334 3.58335 8.93334C3.25002 8.60001 3.25002 8.08334 3.57502 7.75001ZM15 5.83334H7.50002V10.8333H18.3334V9.16668C18.3334 7.32501 16.8417 5.83334 15 5.83334ZM9.16669 9.16668V7.50001H15C15.9167 7.50001 16.6667 8.25001 16.6667 9.16668H9.16669ZM1.66669 13.3333H6.66669V15H13.3334V13.3333H18.3334V11.6667H1.66669V13.3333Z" fill="white"/>
</svg>
