<?xml version="1.0" encoding="UTF-8" standalone="no"?>
<!DOCTYPE svg PUBLIC "-//W3C//DTD SVG 1.1//EN" "http://www.w3.org/Graphics/SVG/1.1/DTD/svg11.dtd">
<svg width="100%" height="100%" viewBox="0 0 260 200" version="1.1" xmlns="http://www.w3.org/2000/svg" xmlns:xlink="http://www.w3.org/1999/xlink" xml:space="preserve" xmlns:serif="http://www.serif.com/" style="fill-rule:evenodd;clip-rule:evenodd;stroke-linecap:round;stroke-linejoin:round;stroke-miterlimit:1.5;">
    <g transform="matrix(1,0,0,1,-91,-628)">
        <g transform="matrix(1,0,0,1,-4,26)">
            <g id="Challenge">
                <g transform="matrix(0.992366,0,0,0.826446,0.725191,104.479)">
                    <rect x="95" y="602" width="262" height="242" style="fill:none;"/>
                </g>
                <g transform="matrix(1,0,0,1,-123.25,7)">
                    <g>
                        <g transform="matrix(1.5,0,0,1.5,-136.25,-303)">
                            <circle cx="273.5" cy="704" r="1" style="fill:white;"/>
                        </g>
                        <g transform="matrix(1.5,0,0,1.5,-174.75,-315.5)">
                            <circle cx="273.5" cy="704" r="1" style="fill:white;"/>
                        </g>
                        <g transform="matrix(1.5,0,0,1.5,-158.75,-301.5)">
                            <circle cx="273.5" cy="704" r="1" style="fill:white;"/>
                        </g>
                    </g>
                    <g transform="matrix(1,0,0,1,-18.08,57.08)">
                        <g transform="matrix(0.977803,0,0,0.977803,9.62883,-10.0085)">
                            <circle cx="272.5" cy="701.5" r="18.92" style="fill:rgb(255,87,34);fill-opacity:0;stroke:white;stroke-width:0.64px;"/>
                        </g>
                        <g transform="matrix(1.5,0,0,1.5,-123.25,-371.5)">
                            <circle cx="273.5" cy="704" r="1" style="fill:rgb(255,0,0);"/>
                        </g>
                    </g>
                </g>
                <g transform="matrix(1,0,0,1,-669,150.621)">
                    <g transform="matrix(1.00128,0,0,1.00128,-3.00854,-0.642628)">
                        <circle cx="813.969" cy="527.348" r="23.969" style="fill:rgb(255,87,34);"/>
                    </g>
                    <g transform="matrix(1.01868,0,0,1.01868,-15.1714,-9.82234)">
                        <circle cx="812" cy="527.348" r="18.652" style="fill:white;"/>
                    </g>
                    <g transform="matrix(0.584078,0,0,0.584078,336.578,219.366)">
                        <circle cx="813.969" cy="527.348" r="23.969" style="fill:rgb(255,87,34);"/>
                    </g>
                    <g transform="matrix(0.482535,0,0,0.482535,420.182,272.915)">
                        <circle cx="812" cy="527.348" r="18.652" style="fill:white;"/>
                    </g>
                    <g transform="matrix(0.1043,0,0,0.1043,727.103,472.377)">
                        <circle cx="813.969" cy="527.348" r="23.969" style="fill:rgb(255,87,34);"/>
                    </g>
                </g>
                <g transform="matrix(1,0,0,1,-609,205.621)">
                    <g transform="matrix(1.00128,0,0,1.00128,-3.00854,-0.642628)">
                        <circle cx="813.969" cy="527.348" r="23.969" style="fill:rgb(255,87,34);"/>
                    </g>
                    <g transform="matrix(1.01868,0,0,1.01868,-15.1714,-9.82234)">
                        <circle cx="812" cy="527.348" r="18.652" style="fill:white;"/>
                    </g>
                    <g transform="matrix(0.584078,0,0,0.584078,336.578,219.366)">
                        <circle cx="813.969" cy="527.348" r="23.969" style="fill:rgb(255,87,34);"/>
                    </g>
                    <g transform="matrix(0.482535,0,0,0.482535,420.182,272.915)">
                        <circle cx="812" cy="527.348" r="18.652" style="fill:white;"/>
                    </g>
                    <g transform="matrix(0.1043,0,0,0.1043,727.103,472.377)">
                        <circle cx="813.969" cy="527.348" r="23.969" style="fill:rgb(255,87,34);"/>
                    </g>
                </g>
                <g transform="matrix(1,0,0,1,-497,189.621)">
                    <g transform="matrix(1.00128,0,0,1.00128,-3.00854,-0.642628)">
                        <circle cx="813.969" cy="527.348" r="23.969" style="fill:rgb(255,87,34);"/>
                    </g>
                    <g transform="matrix(1.01868,0,0,1.01868,-15.1714,-9.82234)">
                        <circle cx="812" cy="527.348" r="18.652" style="fill:white;"/>
                    </g>
                    <g transform="matrix(0.584078,0,0,0.584078,336.578,219.366)">
                        <circle cx="813.969" cy="527.348" r="23.969" style="fill:rgb(255,87,34);"/>
                    </g>
                    <g transform="matrix(0.482535,0,0,0.482535,420.182,272.915)">
                        <circle cx="812" cy="527.348" r="18.652" style="fill:white;"/>
                    </g>
                    <g transform="matrix(0.1043,0,0,0.1043,727.103,472.377)">
                        <circle cx="813.969" cy="527.348" r="23.969" style="fill:rgb(255,87,34);"/>
                    </g>
                </g>
                <g>
                    <g>
                        <g transform="matrix(1,0,0,1,4,-26)">
                            <circle cx="272.5" cy="701.5" r="18.92" style="fill:rgb(255,87,34);fill-opacity:0;stroke:white;stroke-width:0.63px;"/>
                        </g>
                        <g transform="matrix(1.5,0,0,1.5,-123.25,-371.5)">
                            <circle cx="273.5" cy="704" r="1" style="fill:rgb(255,0,0);"/>
                        </g>
                    </g>
                    <g>
                        <g transform="matrix(1.5,0,0,1.5,-133.75,-405.5)">
                            <circle cx="273.5" cy="704" r="1" style="fill:white;"/>
                        </g>
                        <g transform="matrix(1.5,0,0,1.5,-108.25,-380.5)">
                            <circle cx="273.5" cy="704" r="1" style="fill:white;"/>
                        </g>
                    </g>
                </g>
                <g transform="matrix(0.770833,0,0,0.770833,-365.916,344.479)">
                    <g transform="matrix(1.00128,0,0,1.00128,-3.00854,-0.642628)">
                        <circle cx="813.969" cy="527.348" r="23.969" style="fill:rgb(255,87,34);"/>
                    </g>
                    <g transform="matrix(1.01868,0,0,1.01868,-15.1714,-9.82234)">
                        <circle cx="812" cy="527.348" r="18.652" style="fill:white;"/>
                    </g>
                    <g transform="matrix(0.584078,0,0,0.584078,336.578,219.366)">
                        <circle cx="813.969" cy="527.348" r="23.969" style="fill:rgb(255,87,34);"/>
                    </g>
                    <g transform="matrix(0.482535,0,0,0.482535,420.182,272.915)">
                        <circle cx="812" cy="527.348" r="18.652" style="fill:white;"/>
                    </g>
                    <g transform="matrix(0.1043,0,0,0.1043,727.103,472.377)">
                        <circle cx="813.969" cy="527.348" r="23.969" style="fill:rgb(255,87,34);"/>
                    </g>
                </g>
                <g transform="matrix(0.499999,0,0,0.499999,-203.499,405.311)">
                    <g transform="matrix(1.00128,0,0,1.00128,-3.00854,-0.642628)">
                        <circle cx="813.969" cy="527.348" r="23.969" style="fill:rgb(255,87,34);"/>
                    </g>
                    <g transform="matrix(1.01868,0,0,1.01868,-15.1714,-9.82234)">
                        <circle cx="812" cy="527.348" r="18.652" style="fill:white;"/>
                    </g>
                    <g transform="matrix(0.584078,0,0,0.584078,336.578,219.366)">
                        <circle cx="813.969" cy="527.348" r="23.969" style="fill:rgb(255,87,34);"/>
                    </g>
                    <g transform="matrix(0.482535,0,0,0.482535,420.182,272.915)">
                        <circle cx="812" cy="527.348" r="18.652" style="fill:white;"/>
                    </g>
                    <g transform="matrix(0.1043,0,0,0.1043,727.103,472.377)">
                        <circle cx="813.969" cy="527.348" r="23.969" style="fill:rgb(255,87,34);"/>
                    </g>
                </g>
            </g>
        </g>
    </g>
</svg>
