<?xml version="1.0" encoding="UTF-8" standalone="no"?>
<!DOCTYPE svg PUBLIC "-//W3C//DTD SVG 1.1//EN" "http://www.w3.org/Graphics/SVG/1.1/DTD/svg11.dtd">
<svg width="100%" height="100%" viewBox="0 0 260 200" version="1.1" xmlns="http://www.w3.org/2000/svg" xmlns:xlink="http://www.w3.org/1999/xlink" xml:space="preserve" xmlns:serif="http://www.serif.com/" style="fill-rule:evenodd;clip-rule:evenodd;stroke-linecap:round;stroke-linejoin:round;stroke-miterlimit:1.5;">
    <g transform="matrix(1,0,0,1,-726.384,-628)">
        <g transform="matrix(1,0,0,1,-4,26)">
            <g id="Precision" transform="matrix(1,0,0,1,635.384,0)">
                <g transform="matrix(0.992366,0,0,0.826446,0.725191,104.479)">
                    <rect x="95" y="602" width="262" height="242" style="fill:rgb(166,166,166);fill-opacity:0;"/>
                </g>
                <g transform="matrix(1.44387,0,0,1.44387,-108.293,-328.046)">
                    <g transform="matrix(0.312525,0,0,0.312525,-90.907,640.065)">
                        <circle cx="936" cy="216.5" r="10.473" style="fill:rgb(255,87,34);"/>
                    </g>
                    <g transform="matrix(0.312525,0,0,0.312525,-63.907,643.065)">
                        <circle cx="936" cy="216.5" r="10.473" style="fill:rgb(255,87,34);"/>
                    </g>
                    <g transform="matrix(0.312525,0,0,0.312525,-88.907,665.065)">
                        <circle cx="936" cy="216.5" r="10.473" style="fill:rgb(255,87,34);"/>
                    </g>
                    <g transform="matrix(0.312525,0,0,0.312525,-46.3607,619.338)">
                        <circle cx="936" cy="216.5" r="10.473" style="fill:rgb(255,87,34);"/>
                    </g>
                    <g transform="matrix(0.312525,0,0,0.312525,-46.3607,619.338)">
                        <circle cx="936" cy="216.5" r="10.473" style="fill:rgb(255,87,34);"/>
                    </g>
                    <g transform="matrix(0.312525,0,0,0.312525,-38.3607,641.338)">
                        <circle cx="936" cy="216.5" r="10.473" style="fill:rgb(255,87,34);"/>
                    </g>
                    <g transform="matrix(0.312525,0,0,0.312525,-25.3607,640.338)">
                        <circle cx="936" cy="216.5" r="10.473" style="fill:rgb(255,87,34);"/>
                    </g>
                    <g transform="matrix(0.312525,0,0,0.312525,-99.4669,656.268)">
                        <circle cx="936" cy="216.5" r="10.473" style="fill:rgb(255,87,34);"/>
                    </g>
                    <g transform="matrix(0.915547,0.402211,-0.402211,0.915547,232.726,-41.7742)">
                        <g transform="matrix(0.158563,8.802e-18,1.06451e-31,0.158563,228.229,565.223)">
                            <circle cx="272.5" cy="701.5" r="18.92" style="fill:rgb(255,87,34);fill-opacity:0;stroke:white;stroke-width:2.73px;"/>
                        </g>
                        <g transform="matrix(1.5,0,0,1.5,-136.183,-377.777)">
                            <circle cx="273.5" cy="704" r="1" style="fill:rgb(255,0,0);"/>
                        </g>
                    </g>
                    <g transform="matrix(0.915547,0.402211,-0.402211,0.915547,248.726,-34.7742)">
                        <g transform="matrix(0.158563,8.802e-18,1.06451e-31,0.158563,228.229,565.223)">
                            <circle cx="272.5" cy="701.5" r="18.92" style="fill:rgb(255,87,34);fill-opacity:0;stroke:white;stroke-width:2.73px;"/>
                        </g>
                        <g transform="matrix(1.5,0,0,1.5,-140.136,-379.317)">
                            <circle cx="273.5" cy="704" r="1" style="fill:rgb(255,0,0);"/>
                        </g>
                    </g>
                    <g transform="matrix(0.915547,0.402211,-0.402211,0.915547,250.726,5.22575)">
                        <g transform="matrix(0.158563,8.802e-18,1.06451e-31,0.158563,228.229,565.223)">
                            <circle cx="272.5" cy="701.5" r="18.92" style="fill:rgb(255,87,34);fill-opacity:0;stroke:white;stroke-width:2.73px;"/>
                        </g>
                        <g transform="matrix(1.5,0,0,1.5,-140.025,-381.55)">
                            <circle cx="273.5" cy="704" r="1" style="fill:rgb(255,0,0);"/>
                        </g>
                    </g>
                    <g transform="matrix(0.915547,0.402211,-0.402211,0.915547,240.726,16.2258)">
                        <g transform="matrix(0.158563,8.802e-18,1.06451e-31,0.158563,228.229,565.223)">
                            <circle cx="272.5" cy="701.5" r="18.92" style="fill:rgb(255,87,34);fill-opacity:0;stroke:white;stroke-width:2.73px;"/>
                        </g>
                        <g transform="matrix(1.5,0,0,1.5,-137.5,-378.29)">
                            <circle cx="273.5" cy="704" r="1" style="fill:rgb(255,0,0);"/>
                        </g>
                    </g>
                    <g transform="matrix(0.915547,0.402211,-0.402211,0.915547,280.726,-4.77425)">
                        <g transform="matrix(0.158563,8.802e-18,1.06451e-31,0.158563,228.229,565.223)">
                            <circle cx="272.5" cy="701.5" r="18.92" style="fill:rgb(255,87,34);fill-opacity:0;stroke:white;stroke-width:2.73px;"/>
                        </g>
                        <g transform="matrix(1.5,0,0,1.5,-138.818,-378.804)">
                            <circle cx="273.5" cy="704" r="1" style="fill:rgb(255,0,0);"/>
                        </g>
                    </g>
                    <g transform="matrix(0.312525,0,0,0.312525,-46.3607,669.338)">
                        <circle cx="936" cy="216.5" r="10.473" style="fill:rgb(255,87,34);"/>
                    </g>
                    <g transform="matrix(0.312525,0,0,0.312525,-56.3607,679.338)">
                        <circle cx="936" cy="216.5" r="10.473" style="fill:rgb(255,87,34);"/>
                    </g>
                </g>
            </g>
        </g>
    </g>
</svg>
