<svg width="76" height="10" viewBox="0 0 76 10" fill="none" xmlns="http://www.w3.org/2000/svg">
<path d="M2.9883 5.41847C3.16413 4.80165 7.5926 4.23548 8.44613 4.06076C9.65559 3.81317 11.0228 3.65236 12.2761 3.51288C14.3346 3.28378 16.6191 3.15805 18.7251 3.18269C21.0129 3.20946 23.2914 2.87778 25.5891 3.03669C30.7539 3.39391 35.9515 2.96727 41.1204 3.28139C48.0245 3.70096 55.0577 4.20654 61.9477 4.21016C65.3731 4.21196 68.7072 4.49679 72.1183 4.83616C72.3655 4.86075 73.9259 4.91578 73.9034 5.14237C73.882 5.35721 73.3527 6.23964 73.0412 6.34278C67.9302 8.03528 61.4259 7.19802 55.8701 7.64986C42.5793 8.73076 29.1279 6.60045 15.6731 6.69474C14.3032 6.70433 10.2659 6.34737 11.5641 6.72897C12.8948 7.1201 15.4476 6.5783 16.7621 6.53155C20.1461 6.41122 23.5554 6.47427 26.9461 6.40145C29.5853 6.34477 32.2126 6.21563 34.8512 6.15896C38.0504 6.09026 41.3183 6.35597 44.5019 6.20447C47.7363 6.05054 51.66 5.88766 54.8993 6.20993C55.1726 6.23712 55.8142 6.30095 55.1036 6.23025C52.2604 5.94739 49.4468 5.9116 46.6011 5.84167C42.8004 5.74827 39.0177 5.82665 35.2231 5.73865C34.5412 5.72284 33.7399 5.48067 33.3944 5.87112" stroke="black" stroke-width="4" stroke-linecap="round"/>
</svg>
